<?xml version="1.0" encoding="iso-8859-1"?>
<!-- Generator: Adobe Illustrator 19.0.0, SVG Export Plug-In . SVG Version: 6.00 Build 0)  -->
<svg version="1.1" id="Capa_1" xmlns="http://www.w3.org/2000/svg" xmlns:xlink="http://www.w3.org/1999/xlink" x="0px" y="0px"
	 viewBox="0 0 512 512" style="enable-background:new 0 0 512 512;" xml:space="preserve">
<path style="fill:#FF6849;" d="M451,512H61V0h390V512z"/>
<g>
	<path style="fill:#FD4B2D;" d="M451,512H256V0h195V512z"/>
	<polygon style="fill:#FD4B2D;" points="371,120 141,120 61,0 61,512 451,512 451,0 	"/>
</g>
<polygon style="fill:#E8130F;" points="371,120 256,120 256,512 451,512 451,0 "/>
<path style="fill:#FFDC40;" d="M256,180c-33.084,0-60-26.916-60-60s26.916-60,60-60s60,26.916,60,60S289.084,180,256,180z"/>
<path style="fill:#FFAB15;" d="M256,60v120c33.084,0,60-26.916,60-60S289.084,60,256,60z"/>
<path style="fill:#FFEA84;" d="M256,90c-16.542,0-30,13.458-30,30s13.458,30,30,30s30-13.458,30-30S272.542,90,256,90z"/>
<path style="fill:#FFDC40;" d="M256,90v60c16.542,0,30-13.458,30-30S272.542,90,256,90z"/>
<g>
</g>
<g>
</g>
<g>
</g>
<g>
</g>
<g>
</g>
<g>
</g>
<g>
</g>
<g>
</g>
<g>
</g>
<g>
</g>
<g>
</g>
<g>
</g>
<g>
</g>
<g>
</g>
<g>
</g>
</svg>
