<svg xmlns="http://www.w3.org/2000/svg" width="14" height="14" viewBox="0 0 14 14"><defs><style>.a{fill:#ffdd4d;}.b{fill:#303030;}.c{fill:#695342;}.d{fill:#f06669;}</style></defs><g transform="translate(85.236 256.5)"><circle class="a" cx="7" cy="7" r="7" transform="translate(-85.236 -256.5)"/><g transform="translate(-81.331 -252.067)"><path class="b" d="M-36.651-201.66c0,.48-.231.869-.516.869s-.516-.389-.516-.869.231-.869.516-.869S-36.651-202.14-36.651-201.66Z" transform="translate(37.683 202.529)"/></g><g transform="translate(-76.173 -252.067)"><path class="b" d="M26.153-201.66c0,.48-.231.869-.516.869s-.516-.389-.516-.869.231-.869.516-.869S26.153-202.14,26.153-201.66Z" transform="translate(-25.122 202.529)"/></g><path class="c" d="M-57.275-163.2a4.735,4.735,0,0,0,4.7,4.2,4.735,4.735,0,0,0,4.7-4.2Z" transform="translate(-25.665 -85.637)"/><path class="d" d="M-39.563-135.524a4.715,4.715,0,0,0,3.249,1.293,4.714,4.714,0,0,0,3.138-1.191l-.044-.1A7.808,7.808,0,0,0-39.563-135.524Z" transform="translate(-41.922 -110.408)"/></g></svg>