<svg width="48" height="48" viewBox="0 0 48 48" fill="none" xmlns="http://www.w3.org/2000/svg">
    <path fill-rule="evenodd" clip-rule="evenodd" d="M21.729 7.7a2 2 0 0 1 1.128 1.8v29a2 2 0 0 1-3.24 1.569l-9.931-7.855H2a2 2 0 0 1-2-2V17.786a2 2 0 0 1 2-2h7.686l9.93-7.855A2 2 0 0 1 21.73 7.7zm-2.872 5.932-7.235 5.722a2 2 0 0 1-1.241.432H4v8.428h6.381a2 2 0 0 1 1.24.432l7.236 5.722V13.632zm28.565 2.748a2 2 0 0 1-.016 2.828L42.56 24l4.847 4.792a2 2 0 1 1-2.812 2.845l-4.88-4.825-4.88 4.825a2 2 0 1 1-2.811-2.845L36.87 24l-4.847-4.792a2 2 0 0 1 2.812-2.845l4.88 4.825 4.879-4.825a2 2 0 0 1 2.828.017z" fill="#888"/>
</svg>
