<svg xmlns="http://www.w3.org/2000/svg" xmlns:xlink="http://www.w3.org/1999/xlink" width="14" height="13.991" viewBox="0 0 14 13.991"><defs><style>.a{fill:url(#a);}.b{fill:#d61200;}.c{fill:#cc9919;}.d{fill:#f4d83b;}</style><linearGradient id="a" x1="2.075" y1="-18.444" x2="3.075" y2="-18.444" gradientUnits="objectBoundingBox"><stop offset="0" stop-color="#bf1000"/><stop offset="1" stop-color="#c30d23"/></linearGradient></defs><g transform="translate(-963.617 -1639.758)"><g transform="translate(963.617 1640.407)"><path class="a" d="M963.617,1644.2V1642.9a7.873,7.873,0,0,1,14,0l0,3.1a.98.98,0,0,1-1.012.942H964.625C964.065,1646.94,963.617,1644.725,963.617,1644.2Z" transform="translate(-963.617 -1639.28)"/><path class="b" d="M977.617,1676.289v8.413c0,.316-.452.573-1.012.573H964.629c-.558,0-1.012-.257-1.012-.573v-8.415c1.176,1.529,3.868,2.6,7,2.6S976.442,1677.817,977.617,1676.289Z" transform="translate(-963.617 -1671.933)"/></g><g transform="translate(965.617 1641.749)"><path class="c" d="M997.388,1661.364q-.247-.024-.5-.025a4.765,4.765,0,1,0,0,9.523q.254,0,.5-.024a4.748,4.748,0,0,0,0-9.474Z" transform="translate(-991.951 -1661.339)"/><g transform="translate(0.903 0.872)"><ellipse class="d" cx="4.032" cy="3.89" rx="4.032" ry="3.89"/></g><g transform="translate(3.359 1.938)"><path class="c" d="M1014.847,1675.84h0a.218.218,0,0,1-.173-.087l-1.44-1.911.347-.266,1.267,1.682,1.335-1.761.346.268-1.508,1.989A.218.218,0,0,1,1014.847,1675.84Z" transform="translate(-1013.234 -1673.497)"/></g><g transform="translate(4.754 4.061)"><rect class="c" width="0.436" height="3.217"/></g><g transform="translate(2.917 4.352)"><rect class="c" width="4.035" height="0.44"/></g><g transform="translate(2.917 5.64)"><rect class="c" width="4.035" height="0.44"/></g></g></g></svg>