<svg width="24" height="24" viewBox="0 0 24 24" fill="none" xmlns="http://www.w3.org/2000/svg">
    <path fill-rule="evenodd" clip-rule="evenodd" d="M17.402 3.997a1.7 1.7 0 1 0 0 3.4 1.7 1.7 0 0 0 0-3.4zm-2.574 4.359a3.7 3.7 0 1 0-1.008-1.727l-4.646 2.71a3.7 3.7 0 1 0 0 5.317l4.647 2.708a3.7 3.7 0 1 0 1.01-1.726l-4.648-2.709a3.705 3.705 0 0 0 0-1.862l4.645-2.711zm-6.785 2.742a1.042 1.042 0 0 0 .052.09 1.693 1.693 0 0 1-.027 1.666 1.7 1.7 0 0 1-3.168-.856 1.7 1.7 0 0 1 3.143-.9zm7.659 7.202c0-.274.064-.532.18-.761a1.006 1.006 0 0 0 .111-.192 1.7 1.7 0 1 1-.292.953z" fill="#FE5F3F"/>
</svg>
