<svg width="68" height="64" viewBox="0 0 68 64" fill="none" xmlns="http://www.w3.org/2000/svg">
    <path fill-rule="evenodd" clip-rule="evenodd" d="M31.462 8.343a9.594 9.594 0 0 1 10.872 4.504l16.407 28.809a9.567 9.567 0 0 1 .916 7.286 9.564 9.564 0 0 1-4.504 5.8A9.591 9.591 0 0 1 50.405 56H17.593a9.562 9.562 0 0 1-6.783-2.81A9.566 9.566 0 0 1 8 46.405c0-1.666.433-3.302 1.257-4.75l16.406-28.807a9.564 9.564 0 0 1 5.8-4.505z" fill="#EE5253" fill-opacity=".3"/>
    <path d="m5.782 39.676 3.475 1.98-3.475-1.98A13.597 13.597 0 0 0 4 46.405c0 3.753 1.526 7.157 3.981 9.613A13.562 13.562 0 0 0 17.593 60h32.812c2.36 0 4.678-.614 6.728-1.782a13.564 13.564 0 0 0 6.381-8.219c.919-3.349.56-7.062-1.297-10.323L45.81 10.868l-3.476 1.98 3.476-1.98a13.595 13.595 0 0 0-15.407-6.382 13.563 13.563 0 0 0-8.216 6.382l3.055 1.74-3.055-1.74L5.782 39.676z" stroke="#EE5253" stroke-opacity=".1" stroke-width="8" stroke-linejoin="round"/>
    <path d="M34.013 43A2.993 2.993 0 0 1 37 46a2.994 2.994 0 0 1-2.899 3h-.114A2.993 2.993 0 0 1 31 46a2.994 2.994 0 0 1 2.899-2.998l.114-.001zM34 20.334a3 3 0 0 1 2.999 2.912l.001.088v11.334a3 3 0 0 1-5.999.089L31 34.667V23.333a3 3 0 0 1 3-3z" fill="#EE5253"/>
</svg>
