<svg width="48" height="48" viewBox="0 0 48 48" fill="none" xmlns="http://www.w3.org/2000/svg">
    <path fill-rule="evenodd" clip-rule="evenodd" d="M26 0a2 2 0 0 1 2 2v14h14a2 2 0 1 1 0 4H26a2 2 0 0 1-2-2V2a2 2 0 0 1 2-2z" fill="#FFF"/>
    <path d="M26 2 27.398.57A2 2 0 0 0 26 0v2zm16 15.644h2a2 2 0 0 0-.602-1.43L42 17.644zM38 44H10v4h28v-4zM8 42V6H4v36h4zm2-38h16V0H10v4zm14.602-.57 8 7.822 2.796-2.86-8-7.822-2.796 2.86zm8 7.822 8 7.822 2.796-2.86-8-7.822-2.796 2.86zM40 17.644V42h4V17.644h-4zM10 44a2 2 0 0 1-2-2H4a6 6 0 0 0 6 6v-4zm28 4a6 6 0 0 0 6-6h-4a2 2 0 0 1-2 2v4zM8 6a2 2 0 0 1 2-2V0a6 6 0 0 0-6 6h4z" fill="#FFF"/>
</svg>
