<svg xmlns="http://www.w3.org/2000/svg" width="25" height="25" viewBox="0 0 25 25"><defs><style>.a{fill:#953636;opacity:0;}.b{fill:#fff;}</style></defs><g transform="translate(-520 -945)"><rect class="a" width="25" height="25" transform="translate(520 945)"/><path class="b" d="M25,16H18.182V13.143A4.8,4.8,0,0,0,15.943,9.2c.461-.039.811-.057,1.1-.057a14.694,14.694,0,0,1,4.97,1c2.466.993,2.984,2.179,2.984,3V16Zm-9.09,0H0V13.143c0-.82.518-2.006,2.984-3a14.7,14.7,0,0,1,4.97-1,14.7,14.7,0,0,1,4.97,1c2.467.993,2.984,2.179,2.984,3V16Zm1.136-9.143a3.429,3.429,0,1,1,3.4-3.429A3.423,3.423,0,0,1,17.046,6.857Zm-9.091,0a3.429,3.429,0,1,1,3.4-3.429A3.423,3.423,0,0,1,7.955,6.857Z" transform="translate(520 949)"/></g></svg>