<svg width="24" height="24" viewBox="0 0 24 24" fill="none" xmlns="http://www.w3.org/2000/svg">
    <path fill-rule="evenodd" clip-rule="evenodd" d="M12 1a7 7 0 0 0-7 7c0 3.353-.717 5.435-1.378 6.646a5.938 5.938 0 0 1-.88 1.244 3.036 3.036 0 0 1-.305.284l-.003.002A1 1 0 0 0 3 18h18a1 1 0 0 0 .566-1.824l-.002-.002a3.026 3.026 0 0 1-.306-.283 5.939 5.939 0 0 1-.88-1.245C19.718 13.435 19 11.353 19 8a7 7 0 0 0-7-7zm6.622 14.604c.076.14.153.271.229.396H5.149c.076-.125.153-.257.229-.396C6.218 14.065 7 11.647 7 8a5 5 0 1 1 10 0c0 3.647.783 6.065 1.622 7.604zm-7.487 4.894a1 1 0 0 0-1.73 1.004 3 3 0 0 0 5.19 0 1 1 0 0 0-1.73-1.004 1 1 0 0 1-1.73 0z" fill="#333"/>
</svg>
