<svg width="24" height="24" viewBox="0 0 24 24" fill="none" xmlns="http://www.w3.org/2000/svg">
    <path d="M12 5.18c-4.545 0-8.427 2.827-10 6.818 1.573 3.991 5.455 6.818 10 6.818 4.55 0 8.427-2.827 10-6.818-1.573-3.99-5.45-6.818-10-6.818zm0 11.364a4.547 4.547 0 0 1-4.545-4.546A4.547 4.547 0 0 1 12 7.453a4.547 4.547 0 0 1 4.546 4.545A4.547 4.547 0 0 1 12 16.544zm0-7.273a2.73 2.73 0 0 0-2.727 2.727A2.73 2.73 0 0 0 12 14.725a2.73 2.73 0 0 0 2.727-2.727A2.73 2.73 0 0 0 12 9.271z" fill="#333"/>
</svg>
