<svg width="24" height="24" viewBox="0 0 24 24" fill="none" xmlns="http://www.w3.org/2000/svg">
    <path d="M20.802 3.709a1 1 0 0 0-1.41-1.418l1.41 1.418zm-2.511 1.089-.706-.71.706.71zM4.394 18.628l-.717.697.007.008.71-.704zm7.024-6.99-.693.721a1 1 0 0 0 1.398-.011l-.705-.71zm3.712-3.695-.705-.708.705.708zm2.71 2.697-.706.709a1 1 0 0 0 1.41 0l-.705-.71zM21 7.494l.705.709a1 1 0 0 0 0-1.418l-.705.71zm-1.608-5.203L17.585 4.09l1.411 1.417 1.806-1.797-1.41-1.418zm-8.674 10.06c.372.366.668.8.87 1.28l1.842-.778a5.944 5.944 0 0 0-1.31-1.929l-1.402 1.427zm.87 1.28c.202.479.307.993.309 1.512l2-.006a5.922 5.922 0 0 0-.467-2.284l-1.842.778zm.309 1.512c.002.52-.1 1.034-.299 1.515l1.848.765a5.92 5.92 0 0 0 .45-2.286l-2 .006zm-.299 1.515c-.199.48-.492.917-.861 1.285l1.41 1.418a5.941 5.941 0 0 0 1.299-1.938l-1.848-.765zm-.861 1.285c-.37.368-.81.66-1.294.859l.76 1.85a5.969 5.969 0 0 0 1.944-1.291l-1.41-1.418zm-1.294.859c-.484.198-1.003.3-1.526.298l-.007 2a5.987 5.987 0 0 0 2.293-.448l-.76-1.85zm-1.526.298a3.987 3.987 0 0 1-1.525-.309l-.772 1.846c.725.303 1.504.46 2.29.463l.007-2zm-1.525-.309a3.968 3.968 0 0 1-1.288-.866l-1.42 1.408c.553.557 1.211 1 1.936 1.304l.772-1.846zm-1.28-.859A3.931 3.931 0 0 1 4 15.16l-2-.017a5.93 5.93 0 0 0 1.677 4.182l1.435-1.393zM4 15.16a3.932 3.932 0 0 1 1.16-2.752L3.75 10.99A5.932 5.932 0 0 0 2 15.143l2 .017zm1.16-2.752a3.978 3.978 0 0 1 2.772-1.157l-.017-2A5.979 5.979 0 0 0 3.75 10.99l1.411 1.418zm2.772-1.157a3.98 3.98 0 0 1 2.793 1.108l1.386-1.441A5.98 5.98 0 0 0 7.915 9.25l.017 2zm4.19 1.097.002-.001-1.41-1.418h-.002l1.41 1.419zm.002-.002 3.711-3.694-1.41-1.417-3.712 3.694 1.41 1.417zm2.3-3.694 2.71 2.697 1.41-1.418-2.709-2.696-1.41 1.417zm4.12 2.697 3.161-3.146-1.41-1.418-3.161 3.146 1.41 1.418zm3.161-4.564L18.996 4.09l-1.41 1.417 2.709 2.697 1.41-1.418zm-4.12-2.696-3.16 3.146 1.41 1.417 3.161-3.146-1.41-1.417z" fill="#333"/>
</svg>
