<svg width="24" height="24" viewBox="0 0 24 24" fill="none" xmlns="http://www.w3.org/2000/svg">
    <path d="M3 13.5h6v6a3 3 0 1 1-6 0v-6z" fill="#fff" stroke="#888" stroke-width="2"/>
    <path d="M1 10a4 4 0 0 1 4-4h2v9H5a4 4 0 0 1-4-4v-1z" fill="#fff" stroke="#888" stroke-width="2"/>
    <path fill-rule="evenodd" clip-rule="evenodd" d="m7 6 10.917-3.07C20.469 2.212 23 4.13 23 6.78v7.44c0 2.65-2.531 4.568-5.083 3.85L7 15V6z" fill="#fff"/>
    <path d="m7 6-.27-.963-.73.205V6h1zm0 9H6v.758l.73.205L7 15zm.27-8.037 10.918-3.07-.542-1.926L6.73 5.037l.542 1.926zM22 6.78v7.44h2V6.78h-2zm-3.812 10.328L7.27 14.038l-.542 1.925 10.917 3.07.542-1.925zM8 15V6H6v9h2zm14-.78a3 3 0 0 1-3.812 2.888l-.542 1.925c3.19.897 6.354-1.5 6.354-4.813h-2zM18.188 3.892A3 3 0 0 1 22 6.78h2c0-3.313-3.164-5.71-6.354-4.813l.542 1.925z" fill="#888"/>
    <rect x="19" y="1.5" width="4" height="18" rx="2" fill="#fff" stroke="#888" stroke-width="2"/>
</svg>
