<svg width="24" height="24" viewBox="0 0 24 24" fill="none" xmlns="http://www.w3.org/2000/svg">
    <path d="M11.998 7.436a4.546 4.546 0 0 1 4.544 4.544c0 .586-.118 1.145-.323 1.659l2.659 2.658A10.794 10.794 0 0 0 22 11.98c-1.577-3.99-5.453-6.817-10.002-6.817-1.273 0-2.49.228-3.622.637l1.963 1.958a4.568 4.568 0 0 1 1.659-.322zM3.488 4.38a.82.82 0 0 0 0 1.158l1.493 1.493.414.414A10.765 10.765 0 0 0 2 11.98c1.572 3.99 5.453 6.817 9.998 6.817 1.409 0 2.754-.273 3.985-.768l.386.386 2.073 2.076a.818.818 0 1 0 1.157-1.156L4.647 4.38a.82.82 0 0 0-1.159 0zm4.447 5.6 1.404 1.405a2.88 2.88 0 0 0-.068.595 2.729 2.729 0 0 0 2.727 2.727c.204 0 .4-.028.59-.069l1.405 1.405a4.47 4.47 0 0 1-1.995.481 4.546 4.546 0 0 1-4.545-4.544c0-.718.182-1.39.482-2zm3.913-.713 2.863 2.863.013-.15a2.729 2.729 0 0 0-2.726-2.727l-.15.014z" fill="#333"/>
</svg>
